<svg xmlns="http://www.w3.org/2000/svg" width="156.095" height="46.323" viewBox="0 0 156.095 46.323">
    <defs>
        <style>
            .cls-1{fill:#00b5bc}
        </style>
    </defs>
    <g id="Group_170" transform="translate(-109.088 -18.057)">
        <path id="Path_20" d="M126.85 146.55h25.015a16.676 16.676 0 1 1 0 33.353h-14.759L127.1 189.909V169.9h22.43a6.42 6.42 0 0 0 6.5-6.5 7.226 7.226 0 0 0-1.854-5.028 6.337 6.337 0 0 0-4.65-1.854l-22.68-.009z" class="cls-1" transform="translate(-16.428 -128.493)"/>
        <path id="Path_172" d="M150.787 158.73h-24.1v-10.84h24.1a5.087 5.087 0 0 1 3.5 1.723 5.513 5.513 0 0 1 1.251 3.7 5.382 5.382 0 0 1-1.2 3.746 4.919 4.919 0 0 1-3.558 1.674zm-22.68-1.418h22.68a3.67 3.67 0 0 0 2.555-1.279 4.035 4.035 0 0 0 .863-2.724 4.081 4.081 0 0 0-.859-2.755 3.753 3.753 0 0 0-2.56-1.331h-22.68z" class="cls-1" transform="translate(-17.602 -118.66)"/>
        <circle id="Ellipse_2" cx="1.584" cy="1.584" r="1.584" class="cls-1" transform="translate(131.434 33.233)"/>
        <path id="Path_2228" d="M8.659 5.057a.655.655 0 0 1-.195.482.635.635 0 0 1-.464.195H2.48a.635.635 0 0 1-.466-.195.655.655 0 0 1-.195-.482v-22.344a.655.655 0 0 1 .195-.482.635.635 0 0 1 .466-.195h9.666a20.8 20.8 0 0 1 4.723.491 10.723 10.723 0 0 1 3.572 1.481 6.74 6.74 0 0 1 2.26 2.5 7.5 7.5 0 0 1 .787 3.521 7.449 7.449 0 0 1-.788 3.509 6.76 6.76 0 0 1-2.26 2.488 10.847 10.847 0 0 1-3.572 1.49 20.457 20.457 0 0 1-4.723.5H8.659zm7.922-15.032a3.439 3.439 0 0 0-.339-1.6 2.639 2.639 0 0 0-.99-1.05 4.6 4.6 0 0 0-1.6-.567 12.532 12.532 0 0 0-2.184-.169H8.659v6.771h2.81a11.949 11.949 0 0 0 2.184-.178 4.723 4.723 0 0 0 1.6-.576 2.655 2.655 0 0 0 .99-1.041 3.387 3.387 0 0 0 .338-1.59zm7.919-1.168a.65.65 0 0 1 .186-.466.608.608 0 0 1 .457-.195h5.2a.635.635 0 0 1 .466.195.635.635 0 0 1 .195.466v8.583a7.935 7.935 0 0 0 .245 2.124 3.466 3.466 0 0 0 .736 1.414 2.83 2.83 0 0 0 1.227.787 5.439 5.439 0 0 0 1.718.245 6.539 6.539 0 0 0 2.032-.31 4.455 4.455 0 0 0 1.625-.909v-11.934a.65.65 0 0 1 .186-.466.627.627 0 0 1 .474-.195h5.18a.635.635 0 0 1 .466.195.635.635 0 0 1 .195.466V5.074a.665.665 0 0 1-.66.66h-5.18a.627.627 0 0 1-.474-.195.65.65 0 0 1-.186-.466v-.8a8.189 8.189 0 0 1-2.522 1.363 9.806 9.806 0 0 1-3.2.5Q28.7 6.14 26.6 4.05t-2.1-6.306zm22.92-7.177a.635.635 0 0 1 .195-.466.635.635 0 0 1 .466-.195h5.18a.627.627 0 0 1 .474.195.65.65 0 0 1 .186.466V5.074a.65.65 0 0 1-.186.466.627.627 0 0 1-.474.195h-5.18a.665.665 0 0 1-.66-.66z" class="cls-1" transform="translate(159.834 41.624)"/>
        <path id="Path_2229" fill="#707070" stroke="rgba(0,0,0,0)" d="M6.421 2.086l-2.8-3.771 2.6-3.521h-.592L3.306-2.071.983-5.206H.358l2.6 3.531L.16 2.086h.625l2.5-3.375L5.8 2.086zm4.854-7.344A3.863 3.863 0 0 0 8.6-4.3l.313.375a3.4 3.4 0 0 1 2.365-.844A3.156 3.156 0 0 1 14.5-1.758H7.681v.177a3.6 3.6 0 0 0 3.677 3.719 3.66 3.66 0 0 0 3.688-3.708 3.631 3.631 0 0 0-3.771-3.688zm.083 6.917a3.067 3.067 0 0 1-3.135-2.948h6.271a3.1 3.1 0 0 1-3.136 2.948zm6.323-.052L22.7-4.831v-.375H17v.479h4.969l-5.027 6.438v.375h5.875v-.479zm8.084-7.7a.4.4 0 0 0 .406-.406.407.407 0 0 0-.406-.406.407.407 0 0 0-.406.406.4.4 0 0 0 .406.408zm-.271 8.177h.531v-7.29h-.531zm9.521-7.292v6.335l-4.958-6.333h-.448v7.292h.531v-6.334l4.969 6.334h.438v-7.292zm7.011-.052a3.863 3.863 0 0 0-2.677.958l.313.375a3.4 3.4 0 0 1 2.365-.844 3.156 3.156 0 0 1 3.229 3.01h-6.824v.177a3.6 3.6 0 0 0 3.677 3.719A3.66 3.66 0 0 0 45.8-1.571a3.631 3.631 0 0 0-3.774-3.687zm.083 6.917a3.067 3.067 0 0 1-3.136-2.948h6.271a3.1 3.1 0 0 1-3.135 2.95z" transform="translate(162.25 61.743)"/>
        <path id="Path_2230" fill="#707070" d="M153.982 5.057a.655.655 0 0 1-.195.482.635.635 0 0 1-.466.195H147.8a.635.635 0 0 1-.465-.195.655.655 0 0 1-.195-.482v-22.344a.655.655 0 0 1 .195-.482.635.635 0 0 1 .465-.195h9.666a20.8 20.8 0 0 1 4.723.491 10.722 10.722 0 0 1 3.572 1.481 6.74 6.74 0 0 1 2.26 2.5 7.5 7.5 0 0 1 .787 3.521 7.449 7.449 0 0 1-.787 3.512 6.76 6.76 0 0 1-2.26 2.488 10.847 10.847 0 0 1-3.572 1.49 20.457 20.457 0 0 1-4.723.5h-3.487zM161.9-9.975a3.44 3.44 0 0 0-.339-1.6 2.639 2.639 0 0 0-.99-1.05 4.6 4.6 0 0 0-1.6-.567 12.532 12.532 0 0 0-2.184-.169h-2.81v6.771h2.81a11.949 11.949 0 0 0 2.184-.178 4.723 4.723 0 0 0 1.6-.576 2.655 2.655 0 0 0 .99-1.041 3.387 3.387 0 0 0 .339-1.59zM174.718 6.14a10.708 10.708 0 0 1-2.869-.364 6.717 6.717 0 0 1-2.26-1.075 4.972 4.972 0 0 1-1.473-1.744 5.121 5.121 0 0 1-.525-2.353 5.687 5.687 0 0 1 .55-2.531 5.049 5.049 0 0 1 1.684-1.921 8.57 8.57 0 0 1 2.844-1.227 16.6 16.6 0 0 1 4.029-.432h4.063v-.542a2.486 2.486 0 0 0-.169-.973 1.371 1.371 0 0 0-.618-.652 3.538 3.538 0 0 0-1.236-.364 15.122 15.122 0 0 0-2.023-.11 19.123 19.123 0 0 0-3.182.262 17.54 17.54 0 0 0-2.827.7.684.684 0 0 1-.576-.051.594.594 0 0 1-.3-.491l-.339-2.708a.583.583 0 0 1 .1-.423.648.648 0 0 1 .355-.271q.813-.254 1.752-.457t1.955-.339q1.016-.135 2.057-.212t2.04-.076a19.652 19.652 0 0 1 4.266.4 7.669 7.669 0 0 1 2.878 1.219 4.721 4.721 0 0 1 1.625 2.1 8.267 8.267 0 0 1 .508 3.055V5.074a.665.665 0 0 1-.66.66h-4.943a.642.642 0 0 1-.474-.186.621.621 0 0 1-.186-.457V4.3a8.746 8.746 0 0 1-1.388.9 7.862 7.862 0 0 1-1.439.567 9.179 9.179 0 0 1-1.54.3 15.856 15.856 0 0 1-1.679.073zm2-3.859a8.563 8.563 0 0 0 2.268-.3 4.09 4.09 0 0 0 1.777-.956v-2.671h-3.893a5.317 5.317 0 0 0-2.717.525 1.705 1.705 0 0 0-.838 1.54 1.6 1.6 0 0 0 .229.88 1.644 1.644 0 0 0 .669.576 3.56 3.56 0 0 0 1.075.313 9.924 9.924 0 0 0 1.428.093zm12.577-20.6a.635.635 0 0 1 .195-.466.635.635 0 0 1 .466-.195h5.18a.628.628 0 0 1 .474.195.65.65 0 0 1 .186.466V5.074a.65.65 0 0 1-.186.466.628.628 0 0 1-.474.195h-5.18a.665.665 0 0 1-.66-.66z" transform="translate(69.389 41.624)"/>
    </g>
</svg>
