<svg xmlns="http://www.w3.org/2000/svg" width="82" height="82" viewBox="0 0 82 82">
    <defs>
        <style>
            .cls-2{fill:#00ba07}
        </style>
    </defs>
    <g id="Layer_2" transform="translate(-.253 -.253)">
        <g id="checkmark-circle">
            <g id="checkmark-circle-2">
                <path id="Path_2160" d="M13.889 24.106a3.452 3.452 0 0 0-4.882 4.882L19.32 39.3a3.438 3.438 0 0 0 2.441 1 3.438 3.438 0 0 0 2.475-1.169L48.3 11.627a3.438 3.438 0 0 0-5.157-4.538L21.761 31.841z" class="cls-2" transform="translate(19.492 14.706)"/>
                <path id="Path_2161" d="M67.191 32.94a3.438 3.438 0 0 0-3.438 3.438 27.5 27.5 0 0 1-27.5 27.5 27.5 27.5 0 0 1 0-55 30.218 30.218 0 0 1 6.532.756A3.438 3.438 0 1 0 44.4 2.963 36.234 36.234 0 0 0 36.252 2a34.378 34.378 0 0 0 0 68.755 34.377 34.377 0 0 0 34.377-34.378 3.438 3.438 0 0 0-3.438-3.437z" class="cls-2" transform="translate(5.001 4.875)"/>
            </g>
        </g>
    </g>
</svg>
