
<svg xmlns="http://www.w3.org/2000/svg" id="bx-save" width="22" height="22" viewBox="0 0 22 22">
    <defs>
        <style>
            .cls-1{fill:none}
        </style>
    </defs>
    <path id="Path_2155" d="M9 16h7.333v6.111H9zm2.444-11h2.444v2.444h-2.444z" class="cls-1" transform="translate(-1.667 -2.556)"/>
    <path id="Path_2156" d="M7.444 16a2.447 2.447 0 0 1 2.444-2.444h7.333A2.447 2.447 0 0 1 19.667 16v6.111h2.446V9.173L17.938 5h-.716v4.889H7.444V5H5v17.111h2.444z" class="cls-1" transform="translate(-2.556 -2.556)"/>
    <path id="Path_2157" fill="#fff" d="M5.444 25h17.112A2.447 2.447 0 0 0 25 22.556V9.111a1.219 1.219 0 0 0-.358-.864l-4.889-4.889A1.217 1.217 0 0 0 18.889 3H5.444A2.447 2.447 0 0 0 3 5.444v17.112A2.447 2.447 0 0 0 5.444 25zm12.222-2.444h-7.333v-6.112h7.333zM15.222 7.889h-2.444V5.444h2.444zM5.444 5.444h2.445v4.889h9.778V5.444h.716l4.173 4.173v12.939h-2.445v-6.112A2.447 2.447 0 0 0 17.667 14h-7.334a2.447 2.447 0 0 0-2.444 2.444v6.111H5.444z" transform="translate(-3 -3)"/>
</svg>